<?xml version="1.0" encoding="iso-8859-1"?>
<!-- Generator: Adobe Illustrator 19.0.0, SVG Export Plug-In . SVG Version: 6.00 Build 0)  -->
<svg version="1.1" id="Capa_1" xmlns="http://www.w3.org/2000/svg" xmlns:xlink="http://www.w3.org/1999/xlink" x="0px" y="0px"
	 viewBox="0 0 512 512" style="enable-background:new 0 0 512 512;" xml:space="preserve">
<circle style="fill:#FFE17D;" cx="255.999" cy="256" r="248.499"/>
<g>
	<path style="fill:#FFD164;" d="M113.49,215.92h92.635c10.311,0,18.985,6.482,22.432,15.471l1.555-21.774
		c0.994-13.921-10.031-25.762-23.987-25.762H113.49c-13.956,0-24.981,11.841-23.987,25.762l1.555,21.773
		C94.504,222.401,103.179,215.92,113.49,215.92z"/>
	<path style="fill:#FFD164;" d="M398.284,215.92h-92.635c-10.311,0-18.985,6.482-22.432,15.471l-1.555-21.774
		c-0.994-13.921,10.031-25.762,23.987-25.762h92.635c13.956,0,24.981,11.841,23.987,25.762l-1.555,21.773
		C417.27,222.401,408.594,215.92,398.284,215.92z"/>
	<path style="fill:#FFD164;" d="M292.073,468.427c-137.242,0-248.499-111.257-248.499-248.499
		c0-59.433,20.891-113.97,55.695-156.732C43.284,108.761,7.501,178.191,7.501,256.001c0,137.241,111.256,248.499,248.499,248.499
		c77.81,0,147.241-35.784,192.805-91.768C406.044,447.536,351.505,468.427,292.073,468.427z"/>
</g>
<path style="fill:#7D5046;" d="M340.168,264.017L340.168,264.017c-11.068,0-20.04-8.972-20.04-20.04v-16.032
	c0-11.068,8.972-20.04,20.04-20.04l0,0c11.068,0,20.04,8.972,20.04,20.04v16.032C360.209,255.045,351.236,264.017,340.168,264.017z"
	/>
<path style="fill:#9C6846;" d="M360.209,227.944c0-12.379-11.222-22.135-24.048-19.651v15.643c0,13.282,10.767,24.048,24.048,24.048
	l0,0V227.944z"/>
<path style="fill:#7D5046;" d="M171.831,264.017L171.831,264.017c-11.068,0-20.04-8.972-20.04-20.04v-16.032
	c0-11.068,8.972-20.04,20.04-20.04l0,0c11.068,0,20.04,8.972,20.04,20.04v16.032C191.871,255.045,182.899,264.017,171.831,264.017z"
	/>
<path style="fill:#9C6846;" d="M191.871,227.944c0-12.379-11.222-22.135-24.048-19.651v15.643c0,13.282,10.767,24.048,24.048,24.048
	l0,0V227.944z"/>
<path style="fill:#FFFFFF;" d="M215.919,376.242v16.032c0,8.854,7.178,16.032,16.032,16.032h8.016
	c8.854,0,16.032-7.178,16.032-16.032c0,8.854,7.179,16.032,16.032,16.032h8.016c8.854,0,16.032-7.178,16.032-16.032v-16.032H215.919
	z"/>
<path d="M191.863,224.449c-4.142,0-7.5,3.358-7.5,7.5v12.026c0,6.916-5.626,12.542-12.542,12.542s-12.542-5.626-12.542-12.542
	v-16.034c0-6.916,5.626-12.542,12.542-12.542c4.142,0,7.5-3.358,7.5-7.5s-3.358-7.5-7.5-7.5c-15.187,0-27.542,12.355-27.542,27.542
	v16.034c0,15.187,12.355,27.542,27.542,27.542s27.542-12.355,27.542-27.542v-12.026
	C199.363,227.807,196.005,224.449,191.863,224.449z"/>
<path d="M360.221,224.449c-4.142,0-7.5,3.358-7.5,7.5v12.026c0,6.916-5.626,12.542-12.542,12.542
	c-6.916,0-12.543-5.626-12.543-12.542v-16.034c0-6.916,5.627-12.542,12.543-12.542c4.142,0,7.5-3.358,7.5-7.5s-3.358-7.5-7.5-7.5
	c-15.187,0-27.543,12.355-27.543,27.542v16.034c0,15.187,12.356,27.542,27.543,27.542s27.542-12.355,27.542-27.542v-12.026
	C367.721,227.807,364.363,224.449,360.221,224.449z"/>
<path d="M448.3,87.051c-2.736-3.109-7.476-3.411-10.585-0.675c-3.109,2.737-3.412,7.476-0.675,10.585
	c24.457,27.788,41.884,60.392,51.441,95.392h-62.529c-1.209-2.144-2.663-4.159-4.362-5.984c-4.936-5.301-11.573-8.717-18.676-9.729
	c-7.221-4.323-41.486-23.676-89.5-32.273c-4.075-0.728-7.975,1.984-8.705,6.061c-0.73,4.077,1.984,7.975,6.061,8.705
	c23.019,4.121,42.867,10.969,57.639,17.186h-62.555c-8.728,0-17.144,3.664-23.092,10.051c-3.076,3.304-5.371,7.218-6.791,11.428
	c-5.996-3.511-12.89-5.445-19.999-5.445c-7.118,0-14.007,1.935-19.999,5.445c-1.42-4.211-3.714-8.125-6.791-11.428
	c-5.947-6.388-14.364-10.051-23.091-10.051h-62.597c14.752-6.21,34.595-13.052,57.681-17.186c4.077-0.73,6.791-4.627,6.061-8.705
	c-0.73-4.078-4.631-6.789-8.705-6.061c-48.016,8.597-82.281,27.95-89.501,32.273c-7.103,1.011-13.741,4.428-18.677,9.729
	c-1.699,1.825-3.153,3.84-4.362,5.983H23.482c10.916-40.059,32.11-76.81,62.085-106.784
	c43.603-43.603,101.542-68.626,163.145-70.459c61.335-1.83,120.401,19.43,166.327,59.852c3.109,2.737,7.848,2.436,10.585-0.675
	c2.737-3.109,2.435-7.848-0.675-10.585C376.16,20.758,313.411-1.814,248.267,0.116c-65.44,1.948-126.988,28.529-173.305,74.847
	C28.644,121.28,2.063,182.826,0.115,248.267C-1.824,313.414,20.757,376.161,63.7,424.95c1.482,1.685,3.552,2.545,5.633,2.545
	c1.76,0,3.527-0.616,4.952-1.87c3.109-2.737,3.412-7.476,0.675-10.585c-40.421-45.925-61.677-104.994-59.851-166.327
	c0.417-14.02,2.049-27.846,4.814-41.361h61.985c-0.016,0.919,0,1.841,0.066,2.765l2.985,41.799
	c2.069,28.957,26.43,51.641,55.461,51.641h46.16c24.845,0,45.694-19.413,47.464-44.195l3.085-43.192
	c4.65-5.55,11.553-8.818,18.843-8.818c7.279,0,14.193,3.268,18.843,8.814l3.085,43.195c1.77,24.782,22.619,44.195,47.464,44.195
	h46.16c29.031,0,53.393-22.684,55.461-51.641l2.986-41.799c0.066-0.923,0.082-1.845,0.066-2.765h62.037
	c3.735,18.214,5.385,36.966,4.82,55.935c-1.833,61.603-26.856,119.542-70.459,163.145s-101.541,68.626-163.145,70.459
	c-61.329,1.826-120.401-19.43-166.327-59.851c-3.108-2.736-7.848-2.435-10.585,0.675c-2.737,3.109-2.435,7.848,0.675,10.585
	c46.854,41.239,106.579,63.7,168.941,63.7c2.576,0,5.158-0.039,7.742-0.116c65.441-1.948,126.988-28.529,173.305-74.846
	c46.318-46.317,72.899-107.865,74.847-173.305C513.823,198.588,491.242,135.841,448.3,87.051z M219.082,258.294
	c-1.212,16.97-15.489,30.264-32.502,30.264h-46.16c-21.199,0-38.988-16.564-40.499-37.709l-2.985-41.799
	c-0.331-4.633,1.23-9.058,4.396-12.458c3.166-3.4,7.468-5.272,12.113-5.272h92.645c4.646,0,8.947,1.873,12.113,5.272
	c3.166,3.4,4.727,7.824,4.396,12.458L219.082,258.294z M415.007,209.049l-2.986,41.799c-1.51,21.146-19.299,37.709-40.499,37.709
	h-46.16c-17.014,0-31.291-13.293-32.502-30.264l-3.518-49.245c-0.331-4.633,1.23-9.058,4.396-12.458
	c3.166-3.4,7.468-5.272,12.114-5.272h92.645c4.646,0,8.947,1.873,12.113,5.272C413.777,199.991,415.338,204.415,415.007,209.049z"/>
<path d="M231.92,415.795h8.017c6.191,0,11.828-2.407,16.034-6.33c4.206,3.923,9.843,6.33,16.034,6.33h8.017
	c12.977,0,23.534-10.558,23.534-23.534v-16.215c21.426-7.203,40.353-19.201,54.243-34.943c2.74-3.106,2.444-7.845-0.662-10.586
	c-3.106-2.74-7.845-2.445-10.586,0.662c-20.76,23.529-54.612,37.576-90.551,37.576s-69.791-14.047-90.552-37.577
	c-2.74-3.105-7.479-3.401-10.586-0.662c-3.105,2.741-3.402,7.48-0.661,10.586c13.878,15.728,32.784,27.718,54.186,34.922v16.235
	C208.386,405.238,218.943,415.795,231.92,415.795z M239.937,400.795h-8.017c-4.706,0-8.534-3.829-8.534-8.534v-12.066
	c8.148,1.805,16.549,2.95,25.085,3.374v8.692C248.471,396.967,244.643,400.795,239.937,400.795z M288.557,392.261
	c0,4.706-3.829,8.534-8.534,8.534h-8.017c-4.706,0-8.534-3.829-8.534-8.534v-8.69c8.536-0.42,16.937-1.562,25.085-3.364V392.261z"/>
<g>
</g>
<g>
</g>
<g>
</g>
<g>
</g>
<g>
</g>
<g>
</g>
<g>
</g>
<g>
</g>
<g>
</g>
<g>
</g>
<g>
</g>
<g>
</g>
<g>
</g>
<g>
</g>
<g>
</g>
</svg>
